<svg version="1.1" id="Layer_1" xmlns="http://www.w3.org/2000/svg" xmlns:xlink="http://www.w3.org/1999/xlink" x="0px" y="0px"
	 width="100%" viewBox="0 0 512 512" enable-background="new 0 0 512 512" xml:space="preserve">
<path fill="#000000" opacity="1.000000" stroke="none" 
	d="
M1.000000,184.000000 
	C1.000000,122.666664 1.000000,61.833332 1.000000,1.000000 
	C171.666672,1.000000 342.333344,1.000000 513.000000,1.000000 
	C513.000000,171.666672 513.000000,342.333344 513.000000,513.000000 
	C342.333344,513.000000 171.666672,513.000000 1.000000,513.000000 
	C1.000000,403.500000 1.000000,294.000000 1.000000,184.000000 
M142.166077,194.969543 
	C141.010513,195.003006 139.751846,194.745987 138.715042,195.113998 
	C125.623207,199.761230 112.586456,204.564026 99.486023,209.186493 
	C92.450241,211.669083 88.361191,215.875336 89.270699,224.174316 
	C84.182251,228.135529 79.093803,232.096756 73.602386,235.400894 
	C66.836884,232.137589 62.988323,234.311234 59.752380,237.903625 
	C54.782192,243.421295 49.948215,249.111710 45.570297,255.104233 
	C26.138184,281.703125 16.868389,311.865143 16.254845,344.507294 
	C16.046194,355.607941 18.121296,366.860535 20.115505,377.869324 
	C23.578510,396.986389 31.809170,414.376038 42.283699,430.522858 
	C50.414627,443.056915 61.043575,453.582092 72.588196,463.141724 
	C96.037025,482.558655 123.102074,493.890411 153.154312,496.637756 
	C167.700638,497.967560 182.736359,496.727234 197.275406,494.688660 
	C218.108047,491.767670 237.467911,483.464508 254.599075,471.468292 
	C265.964996,463.509247 275.930023,453.368530 285.725189,443.419800 
	C291.056885,438.004456 294.959930,431.099609 299.071716,424.591431 
	C302.591888,419.019653 305.491547,413.055817 308.659576,407.276459 
	C364.820618,429.120697 420.004700,414.657501 455.893372,379.132111 
	C493.960449,341.450409 507.714996,294.538666 491.575073,243.446808 
	C467.912231,168.540710 412.316254,139.657150 336.102356,145.631729 
	C336.407074,144.401505 336.858185,143.308090 336.928162,142.190796 
	C338.533997,116.547287 334.801025,92.116241 320.910950,69.857582 
	C309.710419,51.908852 294.764099,38.027168 275.956329,28.538902 
	C258.345215,19.654327 239.561600,16.175415 219.750046,16.851631 
	C204.581177,17.369377 190.262009,20.900034 176.776138,27.228012 
	C157.427643,36.306911 141.733154,49.926586 130.253448,68.184509 
	C119.294716,85.613876 113.374779,104.434158 112.887146,125.140137 
	C112.563805,138.870209 113.850922,152.348007 118.225960,165.239517 
	C122.162971,176.840302 121.994148,179.436234 133.150620,179.683533 
	C136.437561,184.753525 139.724503,189.823517 142.166077,194.969543 
M414.708496,19.027798 
	C402.127045,23.305582 391.030853,29.716967 382.705902,40.444763 
	C372.424316,53.693951 367.965607,68.483421 368.887238,85.293533 
	C369.731812,100.699081 375.363922,113.967766 385.659821,124.979065 
	C398.987732,139.233078 415.682037,145.845032 435.446320,145.086441 
	C455.541718,144.315125 471.594055,136.242569 484.007416,120.538872 
	C505.639709,93.172661 500.329071,50.166389 472.027100,29.484392 
	C454.825439,16.914091 435.900543,14.225633 414.708496,19.027798 
z"/>
<path fill="#465B65" opacity="1.000000" stroke="none" 
	d="
M89.894867,223.860565 
	C88.361191,215.875336 92.450241,211.669083 99.486023,209.186493 
	C112.586456,204.564026 125.623207,199.761230 138.715042,195.113998 
	C139.751846,194.745987 141.010513,195.003006 143.010422,194.953827 
	C160.919327,192.109299 177.989120,192.411011 195.438171,194.961349 
	C203.562988,197.046326 211.312134,199.022263 219.334473,201.217056 
	C229.946671,206.390610 240.285675,211.345291 250.850403,216.553558 
	C257.076111,221.206100 263.076111,225.605087 269.234436,230.288269 
	C271.560364,232.472595 273.727936,234.372711 276.044830,236.562958 
	C279.737122,240.656616 283.280090,244.460144 286.955261,248.569550 
	C320.181915,291.669373 328.788788,339.191895 314.205048,391.339081 
	C332.462952,398.746033 351.049652,401.925629 370.514618,400.211670 
	C405.990051,397.087891 434.693848,381.452728 456.287811,353.312531 
	C476.154846,327.422821 483.721191,297.855865 479.829224,265.531799 
	C478.339783,253.161346 475.183533,241.100632 469.103790,229.688568 
	C468.707367,228.887451 468.366058,228.395996 468.011780,227.949722 
	C467.998840,227.994904 468.089264,228.020645 468.040405,227.703064 
	C467.671082,227.219238 467.350647,227.052994 467.146851,226.954865 
	C467.263519,227.022964 467.401459,226.790649 467.377808,226.424774 
	C444.021881,180.077118 393.745361,155.328140 344.661743,162.278305 
	C313.949127,166.627167 288.587067,181.047607 268.532257,204.693405 
	C265.010162,208.846130 261.189819,210.176483 256.067627,207.230576 
	C252.101913,203.111725 252.764481,199.100632 255.682434,194.825989 
	C264.607330,183.332275 275.587891,174.568390 287.336304,166.214661 
	C287.822113,165.765411 288.024658,165.438919 288.214203,165.155121 
	C288.201172,165.197830 288.273560,165.250107 288.629761,165.234283 
	C297.837036,161.035019 306.750824,156.975418 315.481750,152.554565 
	C317.062927,151.753937 318.832886,149.521164 318.919495,147.866043 
	C319.490082,136.961472 321.080688,125.839439 319.652740,115.147018 
	C312.694122,63.041122 263.281067,26.542429 210.990494,34.090546 
	C150.457718,42.828415 113.369766,106.544479 135.794144,163.667847 
	C138.250870,169.926071 138.345596,174.777405 132.843552,179.046417 
	C121.994148,179.436234 122.162971,176.840302 118.225960,165.239517 
	C113.850922,152.348007 112.563805,138.870209 112.887146,125.140137 
	C113.374779,104.434158 119.294716,85.613876 130.253448,68.184509 
	C141.733154,49.926586 157.427643,36.306911 176.776138,27.228012 
	C190.262009,20.900034 204.581177,17.369377 219.750046,16.851631 
	C239.561600,16.175415 258.345215,19.654327 275.956329,28.538902 
	C294.764099,38.027168 309.710419,51.908852 320.910950,69.857582 
	C334.801025,92.116241 338.533997,116.547287 336.928162,142.190796 
	C336.858185,143.308090 336.407074,144.401505 336.102356,145.631729 
	C412.316254,139.657150 467.912231,168.540710 491.575073,243.446808 
	C507.714996,294.538666 493.960449,341.450409 455.893372,379.132111 
	C420.004700,414.657501 364.820618,429.120697 308.659576,407.276459 
	C305.491547,413.055817 302.591888,419.019653 299.071716,424.591431 
	C294.959930,431.099609 291.056885,438.004456 285.725189,443.419800 
	C275.930023,453.368530 265.964996,463.509247 254.599075,471.468292 
	C237.467911,483.464508 218.108047,491.767670 197.275406,494.688660 
	C182.736359,496.727234 167.700638,497.967560 153.154312,496.637756 
	C123.102074,493.890411 96.037025,482.558655 72.588196,463.141724 
	C61.043575,453.582092 50.414627,443.056915 42.283699,430.522858 
	C31.809170,414.376038 23.578510,396.986389 20.115505,377.869324 
	C18.121296,366.860535 16.046194,355.607941 16.254845,344.507294 
	C16.868389,311.865143 26.138184,281.703125 45.570297,255.104233 
	C49.948215,249.111710 54.782192,243.421295 59.752380,237.903625 
	C62.988323,234.311234 66.836884,232.137589 73.878693,236.091339 
	C77.164604,242.730499 76.751259,244.673996 71.286682,250.268387 
	C31.030439,291.480927 21.047171,357.244354 47.655357,406.663452 
	C71.889191,451.465118 109.220901,477.163605 159.642593,480.524414 
	C211.326096,483.969299 253.290848,463.400604 281.902313,420.067108 
	C310.697998,376.454590 312.337982,330.121277 289.360657,282.727173 
	C288.821106,281.918335 288.420410,281.416687 288.013794,280.954895 
	C288.007874,280.994751 288.087616,281.006378 288.075104,280.673035 
	C287.735138,280.162567 287.407654,279.985413 287.116028,279.853943 
	C287.151825,279.899658 287.251221,279.839600 287.335754,279.479492 
	C253.579071,215.659607 171.718536,190.421417 107.495949,223.860092 
	C101.258003,227.107986 95.775734,229.133072 89.894867,223.860565 
z"/>
<path fill="#FD8980" opacity="1.000000" stroke="none" 
	d="
M132.997086,179.364975 
	C138.345596,174.777405 138.250870,169.926071 135.794144,163.667847 
	C113.369766,106.544479 150.457718,42.828415 210.990494,34.090546 
	C263.281067,26.542429 312.694122,63.041122 319.652740,115.147018 
	C321.080688,125.839439 319.490082,136.961472 318.919495,147.866043 
	C318.832886,149.521164 317.062927,151.753937 315.481750,152.554565 
	C306.750824,156.975418 297.837036,161.035019 288.633179,164.858154 
	C288.934937,162.817719 289.747559,161.180450 290.216553,159.450073 
	C292.229614,152.022720 294.141541,144.567978 296.463928,137.065369 
	C303.123871,135.711334 304.997467,133.468460 304.973816,127.177513 
	C304.967560,125.515015 304.918793,123.844879 304.753265,122.191910 
	C300.103668,75.756996 259.861389,43.822262 213.646774,49.876945 
	C157.870499,57.184319 127.036140,121.203560 156.069260,169.421143 
	C159.812683,175.638138 161.841690,176.485794 169.030548,174.899292 
	C177.909836,181.676880 186.486176,188.264587 195.062515,194.852310 
	C177.989120,192.411011 160.919327,192.109299 143.433105,194.915802 
	C139.724503,189.823517 136.437561,184.753525 132.997086,179.364975 
z"/>
<path fill="#465B64" opacity="1.000000" stroke="none" 
	d="
M415.121429,18.992073 
	C435.900543,14.225633 454.825439,16.914091 472.027100,29.484392 
	C500.329071,50.166389 505.639709,93.172661 484.007416,120.538872 
	C471.594055,136.242569 455.541718,144.315125 435.446320,145.086441 
	C415.682037,145.845032 398.987732,139.233078 385.659821,124.979065 
	C375.363922,113.967766 369.731812,100.699081 368.887238,85.293533 
	C367.965607,68.483421 372.424316,53.693951 382.705902,40.444763 
	C391.030853,29.716967 402.127045,23.305582 415.121429,18.992073 
M421.249817,34.554924 
	C397.807770,40.792908 382.089661,63.467884 385.289978,86.430717 
	C388.778015,111.458031 409.345093,129.424088 433.993622,128.975021 
	C458.108856,128.535660 478.545746,109.817657 480.751556,85.442200 
	C483.759430,52.203556 453.229614,26.795979 421.249817,34.554924 
z"/>
<path fill="#FDFDFD" opacity="1.000000" stroke="none" 
	d="
M89.582779,224.017441 
	C95.775734,229.133072 101.258003,227.107986 107.495949,223.860092 
	C171.718536,190.421417 253.579071,215.659607 287.004364,279.391724 
	C285.870331,278.982880 285.040741,278.386230 284.450623,277.608032 
	C273.843964,263.619812 260.849609,252.291290 245.710571,243.520966 
	C225.341095,231.720535 203.520218,224.835770 179.285385,225.206512 
	C167.420349,226.000641 155.750732,225.505737 144.634460,227.750732 
	C109.248344,234.897232 82.944733,255.273499 63.995022,286.053833 
	C63.457607,286.820068 63.218803,287.424072 62.969521,288.003235 
	C62.959042,287.978363 63.011913,287.967499 62.774338,288.105225 
	C62.413307,288.580200 62.289848,288.917480 62.208351,289.238220 
	C62.250305,289.221710 62.311310,289.288116 61.972572,289.347046 
	C61.011139,290.165436 60.270649,290.856354 59.782768,291.694305 
	C42.269402,321.774445 37.001244,353.938080 43.546204,388.062469 
	C44.723637,394.201416 46.232128,400.276825 47.587772,406.381592 
	C21.047171,357.244354 31.030439,291.480927 71.286682,250.268387 
	C76.751259,244.673996 77.164604,242.730499 74.080185,236.419891 
	C79.093803,232.096756 84.182251,228.135529 89.582779,224.017441 
z"/>
<path fill="#80D7FE" opacity="1.000000" stroke="none" 
	d="
M469.158905,229.998230 
	C475.183533,241.100632 478.339783,253.161346 479.829224,265.531799 
	C483.721191,297.855865 476.154846,327.422821 456.287811,353.312531 
	C434.693848,381.452728 405.990051,397.087891 370.514618,400.211670 
	C351.049652,401.925629 332.462952,398.746033 314.205048,391.339081 
	C328.788788,339.191895 320.181915,291.669373 287.059998,248.215744 
	C291.971405,237.666245 299.397369,229.624634 307.885773,223.007675 
	C338.033722,199.506409 371.116425,194.443390 406.857117,208.841812 
	C408.504272,209.505402 410.381287,209.598389 412.433228,210.045837 
	C413.470276,210.761520 414.225281,211.388458 415.139526,212.214798 
	C415.587982,212.588547 415.877228,212.762909 416.464294,213.078598 
	C462.206177,249.532349 459.017334,320.817535 410.355103,353.732391 
	C391.986908,366.156555 371.684204,371.069427 349.577484,368.143372 
	C343.011627,367.274323 338.924469,369.931396 338.439575,375.085419 
	C337.980713,379.962921 341.459473,383.673096 347.658905,383.932220 
	C356.273438,384.292297 365.047821,385.115692 373.515259,383.973175 
	C412.647186,378.693054 440.941162,357.706482 456.430725,321.611908 
	C472.048340,285.219055 467.163025,250.151306 443.673828,218.242752 
	C427.687103,196.525833 405.602783,183.929108 379.845551,178.289047 
	C383.775238,178.473572 387.287018,178.437286 390.671570,179.075714 
	C419.138123,184.445282 442.683289,198.231552 461.210266,220.561966 
	C463.071930,222.805832 465.328278,224.722260 467.401459,226.790649 
	C467.401459,226.790649 467.263519,227.022964 467.303406,227.161743 
	C467.591980,227.540573 467.840637,227.780594 468.089264,228.020630 
	C468.089264,228.020645 467.998840,227.994904 468.084412,228.244720 
	C468.499634,228.995758 468.829254,229.496994 469.158905,229.998230 
M400.217072,284.418243 
	C399.785889,281.284943 400.210663,277.679657 398.785248,275.094574 
	C389.229767,257.765106 379.303894,240.639282 369.448975,223.475677 
	C364.672974,215.157700 357.527313,215.119492 352.787567,223.377701 
	C343.017944,240.399689 333.400818,257.510345 323.491577,274.450317 
	C320.833801,278.993866 320.723724,282.837555 323.414185,287.430450 
	C333.333649,304.364075 342.946960,321.476807 352.713867,338.500122 
	C357.749146,347.276367 364.423279,347.265869 369.492310,338.434143 
	C379.675720,320.691681 389.785126,302.906799 400.217072,284.418243 
z"/>
<path fill="#FEADA9" opacity="1.000000" stroke="none" 
	d="
M296.090302,137.123199 
	C294.141541,144.567978 292.229614,152.022720 290.216553,159.450073 
	C289.747559,161.180450 288.934937,162.817719 288.276978,164.873962 
	C288.273560,165.250107 288.201172,165.197830 287.970490,165.309235 
	C287.510895,165.726242 287.281982,166.031830 287.053070,166.337433 
	C275.587891,174.568390 264.607330,183.332275 255.266022,194.844238 
	C243.121246,199.243896 231.368301,201.777283 219.061279,200.998199 
	C211.312134,199.022263 203.562988,197.046326 195.438171,194.961349 
	C186.486176,188.264587 177.909836,181.676880 169.235596,174.617035 
	C173.088287,170.440247 172.971786,166.407074 170.281113,162.022751 
	C164.782516,153.063080 161.693146,143.277161 161.119095,132.808044 
	C159.172928,97.315765 186.587646,66.593414 221.432602,65.066483 
	C257.806366,63.472553 287.755798,90.957932 288.914734,127.184128 
	C289.081421,132.396133 290.989838,135.762344 296.090302,137.123199 
M224.470993,140.784882 
	C219.740845,148.627609 214.896637,156.404541 210.320541,164.336136 
	C207.255432,169.648758 209.483459,175.477997 214.871658,176.716461 
	C219.542816,177.790115 222.415359,175.192612 224.644440,171.496353 
	C231.954056,159.375549 239.257812,147.251099 246.613358,135.158157 
	C248.493820,132.066589 250.087585,129.010010 248.095490,125.375061 
	C246.046509,121.636292 242.625214,120.901268 238.735138,120.974297 
	C233.866150,121.065697 228.994156,120.996284 223.104126,120.996284 
	C228.754349,111.687302 233.866837,103.531906 238.656906,95.191345 
	C239.913315,93.003723 241.312042,89.832382 240.600067,87.845886 
	C239.683029,85.287247 237.069977,82.599129 234.530518,81.536224 
	C230.932877,80.030426 227.815094,82.229485 225.812729,85.556839 
	C218.342560,97.970200 210.903580,110.402390 203.405701,122.798965 
	C201.540115,125.883400 199.871140,128.945221 201.851669,132.577240 
	C204.000046,136.517029 207.653397,137.122635 211.699310,137.029388 
	C216.396606,136.921097 221.098297,137.004150 226.396255,137.004150 
	C225.583191,138.672256 225.228882,139.399170 224.470993,140.784882 
z"/>
<path fill="#FCF3A1" opacity="1.000000" stroke="none" 
	d="
M47.655357,406.663452 
	C46.232128,400.276825 44.723637,394.201416 43.546204,388.062469 
	C37.001244,353.938080 42.269402,321.774445 59.782768,291.694305 
	C60.270649,290.856354 61.011139,290.165436 61.933434,289.715240 
	C50.868347,312.888367 46.553883,336.973999 50.219299,362.286652 
	C59.884315,429.031342 122.837624,474.530396 189.568832,463.135468 
	C240.757706,454.394531 281.695068,412.050934 287.901306,361.425262 
	C294.555420,307.146149 266.403320,256.229095 217.104965,235.336197 
	C205.327438,230.344818 192.226395,228.476349 179.734085,225.171539 
	C203.520218,224.835770 225.341095,231.720535 245.710571,243.520966 
	C260.849609,252.291290 273.843964,263.619812 284.450623,277.608032 
	C285.040741,278.386230 285.870331,278.982880 286.919830,279.751831 
	C287.251221,279.839600 287.151825,279.899658 287.206757,280.111542 
	C287.536987,280.551086 287.812286,280.778748 288.087616,281.006378 
	C288.087616,281.006378 288.007874,280.994751 288.082367,281.287079 
	C288.604401,282.064392 289.051941,282.549408 289.499481,283.034393 
	C312.337982,330.121277 310.697998,376.454590 281.902313,420.067108 
	C253.290848,463.400604 211.326096,483.969299 159.642593,480.524414 
	C109.220901,477.163605 71.889191,451.465118 47.655357,406.663452 
z"/>
<path fill="#A8E2FD" opacity="1.000000" stroke="none" 
	d="
M467.377808,226.424774 
	C465.328278,224.722260 463.071930,222.805832 461.210266,220.561966 
	C442.683289,198.231552 419.138123,184.445282 390.671570,179.075714 
	C387.287018,178.437286 383.775238,178.473572 379.775208,178.297424 
	C379.227997,178.397766 379.206238,178.254852 378.856018,178.007080 
	C375.915161,177.549942 373.324554,177.340591 370.283722,177.175629 
	C338.156738,175.424835 310.632355,185.052734 287.750641,207.237122 
	C285.779144,209.148544 284.451904,211.724518 282.559204,214.179367 
	C277.887421,219.579330 273.481750,224.791702 269.076111,230.004074 
	C263.076111,225.605087 257.076111,221.206100 251.027008,216.223984 
	C252.743896,212.926285 254.509918,210.211731 256.275940,207.497192 
	C261.189819,210.176483 265.010162,208.846130 268.532257,204.693405 
	C288.587067,181.047607 313.949127,166.627167 344.661743,162.278305 
	C393.745361,155.328140 444.021881,180.077118 467.377808,226.424774 
z"/>
<path fill="#65C5E8" opacity="1.000000" stroke="none" 
	d="
M412.151245,209.957123 
	C410.381287,209.598389 408.504272,209.505402 406.857117,208.841812 
	C371.116425,194.443390 338.033722,199.506409 307.885773,223.007675 
	C299.397369,229.624634 291.971405,237.666245 286.927795,247.909882 
	C283.280090,244.460144 279.737122,240.656616 276.223602,236.251724 
	C279.162903,230.812607 282.072693,225.974854 285.311188,221.315247 
	C291.156342,224.439957 293.509216,224.029129 298.355225,219.272507 
	C316.748535,201.218491 338.828674,192.180801 364.592133,193.138229 
	C382.061462,193.787430 398.227509,198.897934 412.151245,209.957123 
z"/>
<path fill="#FB8A80" opacity="1.000000" stroke="none" 
	d="
M256.067627,207.230576 
	C254.509918,210.211731 252.743896,212.926285 250.801285,215.970398 
	C240.285675,211.345291 229.946671,206.390610 219.334473,201.217072 
	C231.368301,201.777283 243.121246,199.243896 255.013519,195.035812 
	C252.764481,199.100632 252.101913,203.111725 256.067627,207.230576 
z"/>
<path fill="#80D7FD" opacity="1.000000" stroke="none" 
	d="
M284.982513,221.137100 
	C282.072693,225.974854 279.162903,230.812607 276.074310,235.961594 
	C273.727936,234.372711 271.560364,232.472595 269.234436,230.288269 
	C273.481750,224.791702 277.887421,219.579330 282.600098,214.567123 
	C283.598969,216.890564 284.290741,219.013824 284.982513,221.137100 
z"/>
<path fill="#A8E2FD" opacity="1.000000" stroke="none" 
	d="
M469.103790,229.688568 
	C468.829254,229.496994 468.499634,228.995758 468.097382,228.199524 
	C468.366058,228.395996 468.707367,228.887451 469.103790,229.688568 
z"/>
<path fill="#FDFDFD" opacity="1.000000" stroke="none" 
	d="
M289.360657,282.727173 
	C289.051941,282.549408 288.604401,282.064392 288.088287,281.247253 
	C288.420410,281.416687 288.821106,281.918335 289.360657,282.727173 
z"/>
<path fill="#FD8980" opacity="1.000000" stroke="none" 
	d="
M287.336304,166.214661 
	C287.281982,166.031830 287.510895,165.726242 287.983521,165.266541 
	C288.024658,165.438919 287.822113,165.765411 287.336304,166.214661 
z"/>
<path fill="#A8E2FD" opacity="1.000000" stroke="none" 
	d="
M468.040405,227.703064 
	C467.840637,227.780594 467.591980,227.540573 467.186768,227.093643 
	C467.350647,227.052994 467.671082,227.219238 468.040405,227.703064 
z"/>
<path fill="#FDFDFD" opacity="1.000000" stroke="none" 
	d="
M288.075104,280.673035 
	C287.812286,280.778748 287.536987,280.551086 287.170959,280.065857 
	C287.407654,279.985413 287.735138,280.162567 288.075104,280.673035 
z"/>
<path fill="#485B65" opacity="1.000000" stroke="none" 
	d="
M296.463928,137.065369 
	C290.989838,135.762344 289.081421,132.396133 288.914734,127.184128 
	C287.755798,90.957932 257.806366,63.472553 221.432602,65.066483 
	C186.587646,66.593414 159.172928,97.315765 161.119095,132.808044 
	C161.693146,143.277161 164.782516,153.063080 170.281113,162.022751 
	C172.971786,166.407074 173.088287,170.440247 168.932648,174.427155 
	C161.841690,176.485794 159.812683,175.638138 156.069260,169.421143 
	C127.036140,121.203560 157.870499,57.184319 213.646774,49.876945 
	C259.861389,43.822262 300.103668,75.756996 304.753265,122.191910 
	C304.918793,123.844879 304.967560,125.515015 304.973816,127.177513 
	C304.997467,133.468460 303.123871,135.711334 296.463928,137.065369 
z"/>
<path fill="#FEF076" opacity="1.000000" stroke="none" 
	d="
M421.647491,34.423721 
	C453.229614,26.795979 483.759430,52.203556 480.751556,85.442200 
	C478.545746,109.817657 458.108856,128.535660 433.993622,128.975021 
	C409.345093,129.424088 388.778015,111.458031 385.289978,86.430717 
	C382.089661,63.467884 397.807770,40.792908 421.647491,34.423721 
z"/>
<path fill="#485C65" opacity="1.000000" stroke="none" 
	d="
M179.285385,225.206512 
	C192.226395,228.476349 205.327438,230.344818 217.104965,235.336197 
	C266.403320,256.229095 294.555420,307.146149 287.901306,361.425262 
	C281.695068,412.050934 240.757706,454.394531 189.568832,463.135468 
	C122.837624,474.530396 59.884315,429.031342 50.219299,362.286652 
	C46.553883,336.973999 50.868347,312.888367 62.272171,289.656311 
	C62.311310,289.288116 62.250305,289.221710 62.491318,289.151184 
	C62.825520,288.709595 62.918716,288.338562 63.011909,287.967499 
	C63.011913,287.967499 62.959042,287.978363 63.247147,287.832520 
	C63.788048,287.088318 64.040840,286.489960 64.293633,285.891602 
	C82.944733,255.273499 109.248344,234.897232 144.634460,227.750732 
	C155.750732,225.505737 167.420349,226.000641 179.285385,225.206512 
M211.662643,250.270691 
	C192.468903,241.587921 172.407684,238.718201 151.718170,242.528229 
	C103.838943,251.345306 70.308968,287.729095 65.433708,336.341797 
	C63.629456,354.332550 66.452240,371.811157 74.915016,388.655487 
	C75.161301,389.130859 75.407585,389.606201 75.785439,390.729919 
	C76.140526,391.269562 76.495621,391.809235 77.005280,393.015778 
	C95.664467,427.104279 124.504929,446.291016 163.105682,448.686432 
	C239.591522,453.432831 294.395569,375.788849 264.895844,305.079041 
	C255.208054,281.857788 239.215912,264.066345 216.031021,252.407532 
	C215.672653,252.319046 215.314270,252.230560 214.469772,251.729431 
	C213.687134,251.421280 212.904495,251.113144 211.662643,250.270691 
z"/>
<path fill="#FCF3A1" opacity="1.000000" stroke="none" 
	d="
M63.995022,286.053833 
	C64.040840,286.489960 63.788048,287.088318 63.257629,287.857361 
	C63.218803,287.424072 63.457607,286.820068 63.995022,286.053833 
z"/>
<path fill="#FCF3A1" opacity="1.000000" stroke="none" 
	d="
M62.774338,288.105225 
	C62.918716,288.338562 62.825520,288.709595 62.449360,289.167694 
	C62.289848,288.917480 62.413307,288.580200 62.774338,288.105225 
z"/>
<path fill="#465C66" opacity="1.000000" stroke="none" 
	d="
M285.311188,221.315247 
	C284.290741,219.013824 283.598969,216.890564 282.866272,214.379532 
	C284.451904,211.724518 285.779144,209.148544 287.750641,207.237122 
	C310.632355,185.052734 338.156738,175.424835 370.663788,177.343704 
	C374.064789,177.729858 376.635498,177.992355 379.206238,178.254852 
	C379.206238,178.254852 379.227997,178.397766 379.298340,178.389374 
	C405.602783,183.929108 427.687103,196.525833 443.673828,218.242752 
	C467.163025,250.151306 472.048340,285.219055 456.430725,321.611908 
	C440.941162,357.706482 412.647186,378.693054 373.515259,383.973175 
	C365.047821,385.115692 356.273438,384.292297 347.658905,383.932220 
	C341.459473,383.673096 337.980713,379.962921 338.439575,375.085419 
	C338.924469,369.931396 343.011627,367.274323 349.577484,368.143372 
	C371.684204,371.069427 391.986908,366.156555 410.355103,353.732391 
	C459.017334,320.817535 462.206177,249.532349 416.333954,212.848495 
	C415.597321,212.323181 415.288788,212.169296 414.980286,212.015411 
	C414.225281,211.388458 413.470276,210.761520 412.433228,210.045853 
	C398.227509,198.897934 382.061462,193.787430 364.592133,193.138229 
	C338.828674,192.180801 316.748535,201.218491 298.355225,219.272507 
	C293.509216,224.029129 291.156342,224.439957 285.311188,221.315247 
z"/>
<path fill="#465C66" opacity="1.000000" stroke="none" 
	d="
M400.071075,284.778839 
	C389.785126,302.906799 379.675720,320.691681 369.492310,338.434143 
	C364.423279,347.265869 357.749146,347.276367 352.713867,338.500122 
	C342.946960,321.476807 333.333649,304.364075 323.414185,287.430450 
	C320.723724,282.837555 320.833801,278.993866 323.491577,274.450317 
	C333.400818,257.510345 343.017944,240.399689 352.787567,223.377701 
	C357.527313,215.119492 364.672974,215.157700 369.448975,223.475677 
	C379.303894,240.639282 389.229767,257.765106 398.785248,275.094574 
	C400.210663,277.679657 399.785889,281.284943 400.071075,284.778839 
M344.912201,292.587738 
	C350.142700,301.733429 355.373199,310.879150 361.024384,320.760376 
	C368.565521,307.543030 375.648438,295.333740 382.421265,282.954803 
	C383.132965,281.654053 382.510010,279.079651 381.668732,277.559723 
	C375.627441,266.645233 369.379883,255.844696 363.163818,245.027527 
	C362.562408,243.980942 361.730194,243.067001 360.715546,241.701828 
	C355.122925,251.503189 350.471741,261.175659 344.397522,269.851807 
	C338.854767,277.768890 338.073639,284.616943 344.912201,292.587738 
z"/>
<path fill="#65C5E8" opacity="1.000000" stroke="none" 
	d="
M415.139526,212.214813 
	C415.288788,212.169296 415.597321,212.323181 416.036133,212.707153 
	C415.877228,212.762909 415.587982,212.588547 415.139526,212.214813 
z"/>
<path fill="#485B65" opacity="1.000000" stroke="none" 
	d="
M224.672791,140.455475 
	C225.228882,139.399170 225.583191,138.672256 226.396255,137.004150 
	C221.098297,137.004150 216.396606,136.921097 211.699310,137.029388 
	C207.653397,137.122635 204.000046,136.517029 201.851669,132.577240 
	C199.871140,128.945221 201.540115,125.883400 203.405701,122.798965 
	C210.903580,110.402390 218.342560,97.970200 225.812729,85.556839 
	C227.815094,82.229485 230.932877,80.030426 234.530518,81.536224 
	C237.069977,82.599129 239.683029,85.287247 240.600067,87.845886 
	C241.312042,89.832382 239.913315,93.003723 238.656906,95.191345 
	C233.866837,103.531906 228.754349,111.687302 223.104126,120.996284 
	C228.994156,120.996284 233.866150,121.065697 238.735138,120.974297 
	C242.625214,120.901268 246.046509,121.636292 248.095490,125.375061 
	C250.087585,129.010010 248.493820,132.066589 246.613358,135.158157 
	C239.257812,147.251099 231.954056,159.375549 224.644440,171.496353 
	C222.415359,175.192612 219.542816,177.790115 214.871658,176.716461 
	C209.483459,175.477997 207.255432,169.648758 210.320541,164.336136 
	C214.896637,156.404541 219.740845,148.627609 224.672791,140.455475 
z"/>
<path fill="#80D7FE" opacity="1.000000" stroke="none" 
	d="
M378.856018,178.007080 
	C376.635498,177.992355 374.064789,177.729858 371.113983,177.299286 
	C373.324554,177.340591 375.915161,177.549942 378.856018,178.007080 
z"/>
<path fill="#FEF076" opacity="1.000000" stroke="none" 
	d="
M216.364288,252.866516 
	C239.215912,264.066345 255.208054,281.857788 264.895844,305.079041 
	C294.395569,375.788849 239.591522,453.432831 163.105682,448.686432 
	C124.504929,446.291016 95.664467,427.104279 76.893669,392.347443 
	C76.405991,391.146606 76.029930,390.614075 75.653870,390.081573 
	C75.407585,389.606201 75.161301,389.130859 75.097519,388.092804 
	C75.031830,384.752075 74.983032,381.939148 74.503502,379.201599 
	C71.086639,359.695892 73.024384,340.644379 79.973770,322.224823 
	C91.100418,292.733276 111.275581,271.469055 139.995300,258.548126 
	C158.285431,250.319473 177.491608,247.265686 197.511398,249.765381 
	C202.349396,250.369461 207.250031,250.471878 212.121872,250.804993 
	C212.904495,251.113144 213.687134,251.421280 214.918930,252.109024 
	C215.700150,252.614578 216.032211,252.740555 216.364288,252.866516 
M191.870499,421.017670 
	C192.436874,417.114136 193.003265,413.210602 193.605453,409.060303 
	C211.212524,406.144501 223.894348,396.661530 228.427185,378.737671 
	C233.000641,360.653290 226.134476,346.221771 211.616135,335.104492 
	C212.834778,333.407959 213.839249,332.092896 214.756699,330.719727 
	C225.926758,314.001190 219.145035,290.831726 200.340714,283.683197 
	C194.613419,281.505951 192.190735,279.292786 192.816574,273.049011 
	C193.288422,268.341492 189.472839,265.084869 185.085938,265.032745 
	C180.509293,264.978363 177.258759,268.291840 177.025879,273.386353 
	C176.915054,275.810638 177.006836,278.244141 177.006836,280.594238 
	C171.267227,280.594238 166.214096,280.594238 161.204468,280.594238 
	C160.516403,268.429596 158.794327,264.785797 153.228668,265.121399 
	C142.786606,265.750977 145.610306,274.397461 144.744064,281.011749 
	C139.309662,281.011749 134.093109,280.461700 129.080658,281.234833 
	C126.420258,281.645172 123.193451,283.853027 121.935783,286.176819 
	C120.908813,288.074341 121.814362,291.673645 123.007141,293.907593 
	C123.948700,295.670990 126.630318,296.505341 128.860626,297.962311 
	C128.860626,329.120209 128.860626,360.765533 128.860626,392.366241 
	C122.666489,395.073792 120.329659,398.152618 121.145714,402.440857 
	C122.028946,407.082092 125.312500,408.993988 132.427185,409.001617 
	C136.527191,409.006012 140.627197,409.002380 144.652328,409.002380 
	C145.775787,421.836884 147.256241,424.699585 152.612808,424.966736 
	C158.087540,425.239777 159.660156,422.496460 161.492935,409.306458 
	C166.518082,409.306458 171.572525,409.306458 176.591034,409.306458 
	C178.000931,421.786072 178.394150,422.927063 182.089203,424.359680 
	C185.847748,425.816895 188.916000,424.666504 191.870499,421.017670 
z"/>
<path fill="#E8D860" opacity="1.000000" stroke="none" 
	d="
M211.892258,250.537842 
	C207.250031,250.471878 202.349396,250.369461 197.511398,249.765381 
	C177.491608,247.265686 158.285431,250.319473 139.995300,258.548126 
	C111.275581,271.469055 91.100418,292.733276 79.973770,322.224823 
	C73.024384,340.644379 71.086639,359.695892 74.503502,379.201599 
	C74.983032,381.939148 75.031830,384.752075 75.057594,387.822723 
	C66.452240,371.811157 63.629456,354.332550 65.433708,336.341797 
	C70.308968,287.729095 103.838943,251.345306 151.718170,242.528229 
	C172.407684,238.718201 192.468903,241.587921 211.892258,250.537842 
z"/>
<path fill="#E8D860" opacity="1.000000" stroke="none" 
	d="
M75.719650,390.405762 
	C76.029930,390.614075 76.405991,391.146606 76.816383,392.013977 
	C76.495621,391.809235 76.140526,391.269562 75.719650,390.405762 
z"/>
<path fill="#E8D860" opacity="1.000000" stroke="none" 
	d="
M216.197662,252.637024 
	C216.032211,252.740555 215.700150,252.614578 215.161987,252.315353 
	C215.314270,252.230560 215.672653,252.319046 216.197662,252.637024 
z"/>
<path fill="#7FD7FD" opacity="1.000000" stroke="none" 
	d="
M344.727905,292.269745 
	C338.073639,284.616943 338.854767,277.768890 344.397522,269.851807 
	C350.471741,261.175659 355.122925,251.503189 360.715546,241.701828 
	C361.730194,243.067001 362.562408,243.980942 363.163818,245.027527 
	C369.379883,255.844696 375.627441,266.645233 381.668732,277.559723 
	C382.510010,279.079651 383.132965,281.654053 382.421265,282.954803 
	C375.648438,295.333740 368.565521,307.543030 361.024384,320.760376 
	C355.373199,310.879150 350.142700,301.733429 344.727905,292.269745 
z"/>
<path fill="#475B64" opacity="1.000000" stroke="none" 
	d="
M191.652649,421.353088 
	C188.916000,424.666504 185.847748,425.816895 182.089203,424.359680 
	C178.394150,422.927063 178.000931,421.786072 176.591034,409.306458 
	C171.572525,409.306458 166.518082,409.306458 161.492935,409.306458 
	C159.660156,422.496460 158.087540,425.239777 152.612808,424.966736 
	C147.256241,424.699585 145.775787,421.836884 144.652328,409.002380 
	C140.627197,409.002380 136.527191,409.006012 132.427185,409.001617 
	C125.312500,408.993988 122.028946,407.082092 121.145714,402.440857 
	C120.329659,398.152618 122.666489,395.073792 128.860626,392.366241 
	C128.860626,360.765533 128.860626,329.120209 128.860626,297.962311 
	C126.630318,296.505341 123.948700,295.670990 123.007141,293.907593 
	C121.814362,291.673645 120.908813,288.074341 121.935783,286.176819 
	C123.193451,283.853027 126.420258,281.645172 129.080658,281.234833 
	C134.093109,280.461700 139.309662,281.011749 144.744064,281.011749 
	C145.610306,274.397461 142.786606,265.750977 153.228668,265.121399 
	C158.794327,264.785797 160.516403,268.429596 161.204468,280.594238 
	C166.214096,280.594238 171.267227,280.594238 177.006836,280.594238 
	C177.006836,278.244141 176.915054,275.810638 177.025879,273.386353 
	C177.258759,268.291840 180.509293,264.978363 185.085938,265.032745 
	C189.472839,265.084869 193.288422,268.341492 192.816574,273.049011 
	C192.190735,279.292786 194.613419,281.505951 200.340714,283.683197 
	C219.145035,290.831726 225.926758,314.001190 214.756699,330.719727 
	C213.839249,332.092896 212.834778,333.407959 211.616135,335.104492 
	C226.134476,346.221771 233.000641,360.653290 228.427185,378.737671 
	C223.894348,396.661530 211.212524,406.144501 193.605453,409.060303 
	C193.003265,413.210602 192.436874,417.114136 191.652649,421.353088 
M150.634415,392.997528 
	C163.457260,392.996948 176.280548,393.064606 189.102814,392.977386 
	C203.133591,392.881989 213.889923,382.350464 213.836594,368.923401 
	C213.783096,355.455383 203.068481,345.119751 188.958298,345.016357 
	C179.966156,344.950439 170.973007,345.034393 161.980606,344.990570 
	C156.129532,344.962067 152.890045,341.941071 153.002472,336.765289 
	C153.109619,331.833313 156.273178,329.039124 161.944244,329.009064 
	C170.103989,328.965820 178.264221,329.023499 186.424057,328.990479 
	C196.963531,328.947845 204.149414,322.363647 204.090149,312.859985 
	C204.032379,303.592590 196.876038,297.047394 186.648163,297.013031 
	C174.158554,296.971069 161.668686,296.994324 149.178986,297.016327 
	C147.903320,297.018555 146.628006,297.205170 145.191864,297.318970 
	C145.191864,329.206848 145.191864,360.784271 145.191864,392.701599 
	C146.786392,392.807007 148.226807,392.902191 150.634415,392.997528 
z"/>
<path fill="#FEF076" opacity="1.000000" stroke="none" 
	d="
M150.150818,392.997467 
	C148.226807,392.902191 146.786392,392.807007 145.191864,392.701599 
	C145.191864,360.784271 145.191864,329.206848 145.191864,297.318970 
	C146.628006,297.205170 147.903320,297.018555 149.178986,297.016327 
	C161.668686,296.994324 174.158554,296.971069 186.648163,297.013031 
	C196.876038,297.047394 204.032379,303.592590 204.090149,312.859985 
	C204.149414,322.363647 196.963531,328.947845 186.424057,328.990479 
	C178.264221,329.023499 170.103989,328.965820 161.944244,329.009064 
	C156.273178,329.039124 153.109619,331.833313 153.002472,336.765289 
	C152.890045,341.941071 156.129532,344.962067 161.980606,344.990570 
	C170.973007,345.034393 179.966156,344.950439 188.958298,345.016357 
	C203.068481,345.119751 213.783096,355.455383 213.836594,368.923401 
	C213.889923,382.350464 203.133591,392.881989 189.102814,392.977386 
	C176.280548,393.064606 163.457260,392.996948 150.150818,392.997467 
z"/>
</svg>